# 3ds Max Wavefront OBJ Exporter v0.97b - (c)2007 guruware
# 创建的文件:03.12.2019 15:51:45

mtllib Pubu_Mix.mtl

#
# object PubuMix
#

v  -37.2810 -257.7077 101.3232
v  46.8765 -258.3276 101.2579
v  42.2156 -11.6590 19.1463
v  -36.7994 -11.6758 17.3127
v  -32.6260 -0.0159 -163.1345
v  -36.7556 -0.0691 1.0223
v  42.1379 -0.0086 2.9865
v  42.0344 -0.0159 -156.2819
v  42.1855 -5.1863 15.6263
v  -36.9128 -5.2295 13.7194
v  42.1592 -1.3028 10.2405
v  -36.8980 -1.3607 8.2892
# 12 vertices

vn 0.0031 0.3231 0.9463
vn 0.0031 0.3159 0.9488
vn -0.0214 0.3970 0.9176
vn -0.0213 0.4073 0.9131
vn -0.0000 1.0000 0.0003
vn -0.0030 0.9961 0.0878
vn -0.0030 0.9960 0.0896
vn 0.0000 1.0000 -0.0000
vn -0.0185 0.6587 0.7522
vn -0.0183 0.6691 0.7429
vn -0.0104 0.9193 0.3934
vn -0.0102 0.9226 0.3855
# 12 vertex normals

vt 0.0011 0.0101 0.0000
vt 1.0014 0.0101 0.0000
vt 1.0014 0.5772 0.0000
vt 0.0011 0.5772 0.0000
vt 0.0011 0.9992 0.0000
vt 0.0011 0.6205 0.0000
vt 1.0014 0.6205 0.0000
vt 1.0014 0.9992 0.0000
vt 1.0014 0.5921 0.0000
vt 0.0011 0.5921 0.0000
vt 1.0014 0.6056 0.0000
vt 0.0011 0.6056 0.0000
# 12 texture coords

o PubuMix
g PubuMix
usemtl Material__27
s off
f 1/1/1 2/2/2 3/3/3 4/4/4 
f 5/5/5 6/6/6 7/7/7 8/8/8 
f 3/3/3 9/9/9 10/10/10 4/4/4 
f 9/9/9 11/11/11 12/12/12 10/10/10 
f 11/11/11 7/7/7 6/6/6 12/12/12 
# 5 polygons

